<svg xmlns="http://www.w3.org/2000/svg" viewBox="0 0 64 64"><defs><linearGradient id="g" x1="0" y1="0" x2="1" y2="1"><stop stop-color="#25C6A4"/><stop offset="1" stop-color="#0B3D5C"/></linearGradient></defs><rect width="64" height="64" rx="16" fill="url(#g)"/><path d="M20 42c0-13 8-23 20-23 8 0 14 4 18 11l-11 5c-2-4-5-6-8-6-6 0-10 6-10 13s4 13 10 13c4 0 7-2 9-6l10 5c-4 7-10 11-19 11-12 0-19-10-19-23Z" fill="#fff"/><path d="M34 13h10v42H34z" fill="#fff" opacity=".9"/><circle cx="48" cy="18" r="4" fill="#E9B95E"/></svg>